<svg xmlns="http://www.w3.org/2000/svg" xmlns:svg="http://www.w3.org/2000/svg"
    xmlns:rdf="http://www.w3.org/1999/02/22-rdf-syntax-ns#" xmlns:cc="http://creativecommons.org/ns#"
    xmlns:dc="http://purl.org/dc/elements/1.1/" width="257.0632" height="800" viewBox="0 0 68.01464 211.66668"
    version="1.1" id="svg8">
    <defs id="defs2" />
    <g id="layer1" transform="translate(-107.1733,-102.86403)">
        <path fill="#000000" fill-opacity="1" stroke="none" stroke-width="3.36996579" stroke-linejoin="round"
            stroke-miterlimit="4" stroke-dasharray="none" stroke-opacity="1"
            d="m 141.07678,102.86403 -16.95741,29.47698 -16.94607,29.48481 29.61919,-0.0462 V 174.4065 H 107.1733 v 7.18032 h 29.61919 V 189.405 H 107.1733 v 7.17946 h 29.61919 l -19.47388,19.53841 19.47388,19.47301 H 107.1733 v 7.18032 h 29.61919 v 7.81905 H 107.1733 v 7.17947 h 29.61919 v 16.32917 c -15.70581,1.82211 -27.11955,13.04379 -25.99892,25.81654 0.48824,5.41637 3.22392,10.54717 7.77281,14.57794 l 7.91763,-5.02335 c -3.25598,-2.74926 -5.2224,-6.32578 -5.56171,-10.11564 -0.76551,-8.79007 7.24926,-16.48925 18.12751,-17.41377 0.67337,-0.0573 1.34987,-0.0879 2.02697,-0.0907 10.1591,-0.0418 18.79369,5.96999 20.21295,14.07358 l 0.19895,2.28525 c -0.0105,4.1891 -2.01301,8.21571 -5.59837,11.24996 l 7.9124,5.06699 c 5.04577,-4.47619 7.83895,-10.28949 7.83999,-16.31695 l -0.29929,-3.40389 c -1.91338,-10.85064 -12.57259,-19.1791 -25.77554,-20.7086 v -16.32654 h 29.62007 v -7.17947 h -29.62007 v -7.81905 h 29.62007 v -7.18032 h -29.6192 l 19.47302,-19.47301 -19.47302,-19.53846 h 29.6192 v -7.17945 h -29.62007 v -7.81819 h 29.62007 v -7.18031 h -29.62007 v -12.64259 l 29.62007,-0.0584 -17.04904,-29.42462 z m 0.0428,16.71834 9.98649,17.21743 9.97951,17.22269 -19.90493,0.0393 -19.90406,0.0306 9.91757,-17.2567 z m 0.0611,83.31068 13.16698,13.2115 -13.16698,13.16786 -13.16787,-13.16786 z m 0.0568,81.75227 -5.94129,10.22472 -5.94216,10.22558 11.82674,0.0331 11.82586,0.0331 -5.88458,-10.25873 z"
            id="path958" />
    </g>
</svg>
